<svg id="图层_1" data-name="图层 1" xmlns="http://www.w3.org/2000/svg" viewBox="0 0 89.36 89.36"><defs><style>.cls-1{fill:#d60000;}.cls-2{fill:#fff;}</style></defs><title>4</title><circle class="cls-1" cx="44.68" cy="44.68" r="44.68"/><path class="cls-2" d="M54.71,82.54a1,1,0,0,0-.28-.14c-2.72-.6-4.14-2.43-4.68-5a11.12,11.12,0,0,1-.19-2.16c0-2.87,0-5.75,0-8.63v-1h-1c-8.19,0-16.39,0-24.59,0a14,14,0,0,1-4.71-.87,7.24,7.24,0,0,1-3.71-9.89,22.73,22.73,0,0,1,2.09-3.25Q32.05,32.18,46.54,12.86c1-1.26,2-2.45,3-3.67,2.1-2.58,4.82-2.92,7.81-2s4.13,3.07,4.57,5.85a16,16,0,0,1,.17,2.49q0,18.83,0,37.66v1.17a24.92,24.92,0,0,1,2.6,0,33.05,33.05,0,0,1,4.76.67c2.24.58,3.2,2,3.29,4.29a9.59,9.59,0,0,1-.06,1.93,4.46,4.46,0,0,1-3.54,3.84,18.58,18.58,0,0,1-3.49.5c-1.15.09-2.3,0-3.56,0v.92c0,2.93,0,5.86,0,8.79a12.49,12.49,0,0,1-.46,3.09,5.38,5.38,0,0,1-4.22,4,2.11,2.11,0,0,0-.44.17ZM28.06,54.26c.44,0,.69.05,1,.05,6.53,0,13.06,0,19.58,0,.79,0,1-.24,1-1q0-13.5,0-27c0-.25,0-.5-.06-1Z" transform="translate(-2.23 -1.95)"/></svg>